<svg xmlns="http://www.w3.org/2000/svg" viewBox="0 0 16 16"><defs><style>.cls-1{fill:#222831;}.cls-2{fill:#cc2929;}.cls-3{fill:#ffac41;}</style></defs><title>Mesa de trabajo 1</title><g id="Capa_1" data-name="Capa 1"><path class="cls-1" d="M14.43,8.13c1.58,5-1.49,8.24-6.76,6.47S-.64,10,.93,7.67,5.56,2,7.67,1.2,12.84,3.21,14.43,8.13Z"/><path class="cls-2" d="M2.63,8.22c0-.05,0-.09,0-.14a2.1,2.1,0,0,1,0-.75L2.45,5l-.21.23a5.47,5.47,0,0,0-1,1.66A4.4,4.4,0,0,0,1,8.4a2.67,2.67,0,0,0,.26,1.18,1.42,1.42,0,0,0,.65.69,1.19,1.19,0,0,0,.75.07Z"/><path class="cls-2" d="M15.64,3.54a1.71,1.71,0,0,0-.35-.87,1.64,1.64,0,0,0-1-.58,2.12,2.12,0,0,0-1,.07,2.46,2.46,0,0,0-.9.54,2.28,2.28,0,0,0-.58.83,1.42,1.42,0,0,1,1.08.32,1.89,1.89,0,0,1,.59.95,4.44,4.44,0,0,1,.18,1.36,7.88,7.88,0,0,1-.18,1.52A9,9,0,0,1,13,9.15a5.23,5.23,0,0,1-.68,1.18c-.4.49-.79.67-1.16.51s-.67-.73-.9-1.72c0-.19-.11-.5-.19-.92S9.9,7.36,9.8,6.94s-.22-1-.34-1.61a3.43,3.43,0,0,0-.63-1.46,2.71,2.71,0,0,0-1-.81,3,3,0,0,0-1-.18L6.33,9.73c.11.47.22.94.34,1.39s.27,1,.4,1.45A3.65,3.65,0,0,0,8,14.3a1.89,1.89,0,0,0,1.42.49,3.27,3.27,0,0,0,1.65-.68,7.56,7.56,0,0,0,1.68-1.8,14.13,14.13,0,0,0,1.12-1.88,16.66,16.66,0,0,0,.87-1.95,17.81,17.81,0,0,0,.59-1.9,12.11,12.11,0,0,0,.3-1.69A4.93,4.93,0,0,0,15.64,3.54Z"/><path class="cls-3" d="M2.63,2.19H6.3v9.46A2.8,2.8,0,0,1,6,13a2.94,2.94,0,0,1-.81,1A3.22,3.22,0,0,1,4,14.51a4.13,4.13,0,0,1-1.31.15,4.22,4.22,0,0,1-1.3-.29A3.3,3.3,0,0,1,.3,13.6v-1a2.19,2.19,0,0,0,.7.28,1.72,1.72,0,0,0,.75,0,1.14,1.14,0,0,0,.6-.34,1.36,1.36,0,0,0,.28-.82Z"/><path class="cls-2" d="M6.45,2.86A4.94,4.94,0,0,0,5,3.19,6.38,6.38,0,0,0,3.53,4,7.89,7.89,0,0,0,2.45,5l.13,2.41c0-.09,0-.26,0-.36A3,3,0,0,1,3.21,6,2.64,2.64,0,0,1,4,5.17,1,1,0,0,1,4.71,5a.92.92,0,0,1,.55.4,2.27,2.27,0,0,1,.35.89c.1.51.2,1,.32,1.58s.23,1.1.36,1.64c0,.07.12.56.14.63l.43-7.27Z"/><path class="cls-2" d="M3.76,9.5A2.6,2.6,0,0,1,3,8.88a1.85,1.85,0,0,1-.36-.73v2.19"/></g></svg>